%TF.GenerationSoftware,KiCad,Pcbnew,(6.0.9)*%
%TF.CreationDate,2023-03-26T11:38:19+02:00*%
%TF.ProjectId,SelectaAutomatKeyPad,53656c65-6374-4614-9175-746f6d61744b,20230306*%
%TF.SameCoordinates,PX5f5e100PY8f0d180*%
%TF.FileFunction,Legend,Top*%
%TF.FilePolarity,Positive*%
%FSLAX46Y46*%
G04 Gerber Fmt 4.6, Leading zero omitted, Abs format (unit mm)*
G04 Created by KiCad (PCBNEW (6.0.9)) date 2023-03-26 11:38:19*
%MOMM*%
%LPD*%
G01*
G04 APERTURE LIST*
%ADD10C,0.300000*%
%ADD11C,0.150000*%
%ADD12C,0.100000*%
%ADD13C,0.120000*%
G04 APERTURE END LIST*
D10*
X42007142Y4669429D02*
X42007142Y6169429D01*
X42864285Y4669429D02*
X42221428Y5526572D01*
X42864285Y6169429D02*
X42007142Y5312286D01*
X44078571Y4740858D02*
X43935714Y4669429D01*
X43649999Y4669429D01*
X43507142Y4740858D01*
X43435714Y4883715D01*
X43435714Y5455143D01*
X43507142Y5598000D01*
X43649999Y5669429D01*
X43935714Y5669429D01*
X44078571Y5598000D01*
X44149999Y5455143D01*
X44149999Y5312286D01*
X43435714Y5169429D01*
X44649999Y5669429D02*
X45007142Y4669429D01*
X45364285Y5669429D02*
X45007142Y4669429D01*
X44864285Y4312286D01*
X44792856Y4240858D01*
X44649999Y4169429D01*
X45935714Y5669429D02*
X45935714Y4169429D01*
X45935714Y5598000D02*
X46078571Y5669429D01*
X46364285Y5669429D01*
X46507142Y5598000D01*
X46578571Y5526572D01*
X46649999Y5383715D01*
X46649999Y4955143D01*
X46578571Y4812286D01*
X46507142Y4740858D01*
X46364285Y4669429D01*
X46078571Y4669429D01*
X45935714Y4740858D01*
X47935714Y4669429D02*
X47935714Y5455143D01*
X47864285Y5598000D01*
X47721428Y5669429D01*
X47435714Y5669429D01*
X47292856Y5598000D01*
X47935714Y4740858D02*
X47792856Y4669429D01*
X47435714Y4669429D01*
X47292856Y4740858D01*
X47221428Y4883715D01*
X47221428Y5026572D01*
X47292856Y5169429D01*
X47435714Y5240858D01*
X47792856Y5240858D01*
X47935714Y5312286D01*
X49292856Y4669429D02*
X49292856Y6169429D01*
X49292856Y4740858D02*
X49149999Y4669429D01*
X48864285Y4669429D01*
X48721428Y4740858D01*
X48649999Y4812286D01*
X48578571Y4955143D01*
X48578571Y5383715D01*
X48649999Y5526572D01*
X48721428Y5598000D01*
X48864285Y5669429D01*
X49149999Y5669429D01*
X49292856Y5598000D01*
X51078571Y6026572D02*
X51149999Y6098000D01*
X51292856Y6169429D01*
X51649999Y6169429D01*
X51792856Y6098000D01*
X51864285Y6026572D01*
X51935714Y5883715D01*
X51935714Y5740858D01*
X51864285Y5526572D01*
X51007142Y4669429D01*
X51935714Y4669429D01*
X52864285Y6169429D02*
X53007142Y6169429D01*
X53149999Y6098000D01*
X53221428Y6026572D01*
X53292856Y5883715D01*
X53364285Y5598000D01*
X53364285Y5240858D01*
X53292856Y4955143D01*
X53221428Y4812286D01*
X53149999Y4740858D01*
X53007142Y4669429D01*
X52864285Y4669429D01*
X52721428Y4740858D01*
X52649999Y4812286D01*
X52578571Y4955143D01*
X52507142Y5240858D01*
X52507142Y5598000D01*
X52578571Y5883715D01*
X52649999Y6026572D01*
X52721428Y6098000D01*
X52864285Y6169429D01*
X53935714Y6026572D02*
X54007142Y6098000D01*
X54149999Y6169429D01*
X54507142Y6169429D01*
X54649999Y6098000D01*
X54721428Y6026572D01*
X54792856Y5883715D01*
X54792856Y5740858D01*
X54721428Y5526572D01*
X53864285Y4669429D01*
X54792856Y4669429D01*
X55292856Y6169429D02*
X56221428Y6169429D01*
X55721428Y5598000D01*
X55935714Y5598000D01*
X56078571Y5526572D01*
X56149999Y5455143D01*
X56221428Y5312286D01*
X56221428Y4955143D01*
X56149999Y4812286D01*
X56078571Y4740858D01*
X55935714Y4669429D01*
X55507142Y4669429D01*
X55364285Y4740858D01*
X55292856Y4812286D01*
X57149999Y6169429D02*
X57292856Y6169429D01*
X57435714Y6098000D01*
X57507142Y6026572D01*
X57578571Y5883715D01*
X57649999Y5598000D01*
X57649999Y5240858D01*
X57578571Y4955143D01*
X57507142Y4812286D01*
X57435714Y4740858D01*
X57292856Y4669429D01*
X57149999Y4669429D01*
X57007142Y4740858D01*
X56935714Y4812286D01*
X56864285Y4955143D01*
X56792856Y5240858D01*
X56792856Y5598000D01*
X56864285Y5883715D01*
X56935714Y6026572D01*
X57007142Y6098000D01*
X57149999Y6169429D01*
X58149999Y6169429D02*
X59078571Y6169429D01*
X58578571Y5598000D01*
X58792856Y5598000D01*
X58935714Y5526572D01*
X59007142Y5455143D01*
X59078571Y5312286D01*
X59078571Y4955143D01*
X59007142Y4812286D01*
X58935714Y4740858D01*
X58792856Y4669429D01*
X58364285Y4669429D01*
X58221428Y4740858D01*
X58149999Y4812286D01*
X59649999Y6026572D02*
X59721428Y6098000D01*
X59864285Y6169429D01*
X60221428Y6169429D01*
X60364285Y6098000D01*
X60435714Y6026572D01*
X60507142Y5883715D01*
X60507142Y5740858D01*
X60435714Y5526572D01*
X59578571Y4669429D01*
X60507142Y4669429D01*
X61792856Y6169429D02*
X61507142Y6169429D01*
X61364285Y6098000D01*
X61292856Y6026572D01*
X61149999Y5812286D01*
X61078571Y5526572D01*
X61078571Y4955143D01*
X61149999Y4812286D01*
X61221428Y4740858D01*
X61364285Y4669429D01*
X61649999Y4669429D01*
X61792856Y4740858D01*
X61864285Y4812286D01*
X61935714Y4955143D01*
X61935714Y5312286D01*
X61864285Y5455143D01*
X61792856Y5526572D01*
X61649999Y5598000D01*
X61364285Y5598000D01*
X61221428Y5526572D01*
X61149999Y5455143D01*
X61078571Y5312286D01*
X42007142Y1621429D02*
X42007142Y3121429D01*
X42364285Y3121429D01*
X42578571Y3050000D01*
X42721428Y2907143D01*
X42792857Y2764286D01*
X42864285Y2478572D01*
X42864285Y2264286D01*
X42792857Y1978572D01*
X42721428Y1835715D01*
X42578571Y1692858D01*
X42364285Y1621429D01*
X42007142Y1621429D01*
X44078571Y1692858D02*
X43935714Y1621429D01*
X43650000Y1621429D01*
X43507142Y1692858D01*
X43435714Y1835715D01*
X43435714Y2407143D01*
X43507142Y2550000D01*
X43650000Y2621429D01*
X43935714Y2621429D01*
X44078571Y2550000D01*
X44150000Y2407143D01*
X44150000Y2264286D01*
X43435714Y2121429D01*
X44721428Y1692858D02*
X44864285Y1621429D01*
X45150000Y1621429D01*
X45292857Y1692858D01*
X45364285Y1835715D01*
X45364285Y1907143D01*
X45292857Y2050000D01*
X45150000Y2121429D01*
X44935714Y2121429D01*
X44792857Y2192858D01*
X44721428Y2335715D01*
X44721428Y2407143D01*
X44792857Y2550000D01*
X44935714Y2621429D01*
X45150000Y2621429D01*
X45292857Y2550000D01*
X46007142Y1621429D02*
X46007142Y2621429D01*
X46007142Y3121429D02*
X45935714Y3050000D01*
X46007142Y2978572D01*
X46078571Y3050000D01*
X46007142Y3121429D01*
X46007142Y2978572D01*
X47364285Y2621429D02*
X47364285Y1407143D01*
X47292857Y1264286D01*
X47221428Y1192858D01*
X47078571Y1121429D01*
X46864285Y1121429D01*
X46721428Y1192858D01*
X47364285Y1692858D02*
X47221428Y1621429D01*
X46935714Y1621429D01*
X46792857Y1692858D01*
X46721428Y1764286D01*
X46650000Y1907143D01*
X46650000Y2335715D01*
X46721428Y2478572D01*
X46792857Y2550000D01*
X46935714Y2621429D01*
X47221428Y2621429D01*
X47364285Y2550000D01*
X48078571Y2621429D02*
X48078571Y1621429D01*
X48078571Y2478572D02*
X48150000Y2550000D01*
X48292857Y2621429D01*
X48507142Y2621429D01*
X48650000Y2550000D01*
X48721428Y2407143D01*
X48721428Y1621429D01*
X50007142Y1692858D02*
X49864285Y1621429D01*
X49578571Y1621429D01*
X49435714Y1692858D01*
X49364285Y1835715D01*
X49364285Y2407143D01*
X49435714Y2550000D01*
X49578571Y2621429D01*
X49864285Y2621429D01*
X50007142Y2550000D01*
X50078571Y2407143D01*
X50078571Y2264286D01*
X49364285Y2121429D01*
X50721428Y1621429D02*
X50721428Y2621429D01*
X50721428Y2335715D02*
X50792857Y2478572D01*
X50864285Y2550000D01*
X51007142Y2621429D01*
X51150000Y2621429D01*
X51650000Y1764286D02*
X51721428Y1692858D01*
X51650000Y1621429D01*
X51578571Y1692858D01*
X51650000Y1764286D01*
X51650000Y1621429D01*
X51650000Y2550000D02*
X51721428Y2478572D01*
X51650000Y2407143D01*
X51578571Y2478572D01*
X51650000Y2550000D01*
X51650000Y2407143D01*
X53507142Y2407143D02*
X54007142Y2407143D01*
X54221428Y1621429D02*
X53507142Y1621429D01*
X53507142Y3121429D01*
X54221428Y3121429D01*
X55507142Y1621429D02*
X55507142Y3121429D01*
X55507142Y1692858D02*
X55364285Y1621429D01*
X55078571Y1621429D01*
X54935714Y1692858D01*
X54864285Y1764286D01*
X54792857Y1907143D01*
X54792857Y2335715D01*
X54864285Y2478572D01*
X54935714Y2550000D01*
X55078571Y2621429D01*
X55364285Y2621429D01*
X55507142Y2550000D01*
X56078571Y2621429D02*
X56364285Y1621429D01*
X56650000Y2335715D01*
X56935714Y1621429D01*
X57221428Y2621429D01*
X57792857Y1621429D02*
X57792857Y2621429D01*
X57792857Y3121429D02*
X57721428Y3050000D01*
X57792857Y2978572D01*
X57864285Y3050000D01*
X57792857Y3121429D01*
X57792857Y2978572D01*
X58507142Y2621429D02*
X58507142Y1621429D01*
X58507142Y2478572D02*
X58578571Y2550000D01*
X58721428Y2621429D01*
X58935714Y2621429D01*
X59078571Y2550000D01*
X59150000Y2407143D01*
X59150000Y1621429D01*
X61007142Y1621429D02*
X61007142Y3121429D01*
X61864285Y1621429D02*
X61221428Y2478572D01*
X61864285Y3121429D02*
X61007142Y2264286D01*
X62721428Y1621429D02*
X62578571Y1692858D01*
X62507142Y1764286D01*
X62435714Y1907143D01*
X62435714Y2335715D01*
X62507142Y2478572D01*
X62578571Y2550000D01*
X62721428Y2621429D01*
X62935714Y2621429D01*
X63078571Y2550000D01*
X63150000Y2478572D01*
X63221428Y2335715D01*
X63221428Y1907143D01*
X63150000Y1764286D01*
X63078571Y1692858D01*
X62935714Y1621429D01*
X62721428Y1621429D01*
X64507142Y1692858D02*
X64364285Y1621429D01*
X64078571Y1621429D01*
X63935714Y1692858D01*
X63864285Y1764286D01*
X63792857Y1907143D01*
X63792857Y2335715D01*
X63864285Y2478572D01*
X63935714Y2550000D01*
X64078571Y2621429D01*
X64364285Y2621429D01*
X64507142Y2550000D01*
X65150000Y1621429D02*
X65150000Y3121429D01*
X65792857Y1621429D02*
X65792857Y2407143D01*
X65721428Y2550000D01*
X65578571Y2621429D01*
X65364285Y2621429D01*
X65221428Y2550000D01*
X65150000Y2478572D01*
D11*
%TO.C,SW5*%
X38416666Y70845239D02*
X38559523Y70797620D01*
X38797619Y70797620D01*
X38892857Y70845239D01*
X38940476Y70892858D01*
X38988095Y70988096D01*
X38988095Y71083334D01*
X38940476Y71178572D01*
X38892857Y71226191D01*
X38797619Y71273810D01*
X38607142Y71321429D01*
X38511904Y71369048D01*
X38464285Y71416667D01*
X38416666Y71511905D01*
X38416666Y71607143D01*
X38464285Y71702381D01*
X38511904Y71750000D01*
X38607142Y71797620D01*
X38845238Y71797620D01*
X38988095Y71750000D01*
X39321428Y71797620D02*
X39559523Y70797620D01*
X39750000Y71511905D01*
X39940476Y70797620D01*
X40178571Y71797620D01*
X41035714Y71797620D02*
X40559523Y71797620D01*
X40511904Y71321429D01*
X40559523Y71369048D01*
X40654761Y71416667D01*
X40892857Y71416667D01*
X40988095Y71369048D01*
X41035714Y71321429D01*
X41083333Y71226191D01*
X41083333Y70988096D01*
X41035714Y70892858D01*
X40988095Y70845239D01*
X40892857Y70797620D01*
X40654761Y70797620D01*
X40559523Y70845239D01*
X40511904Y70892858D01*
%TO.C,SW7*%
X15416666Y47845239D02*
X15559523Y47797620D01*
X15797619Y47797620D01*
X15892857Y47845239D01*
X15940476Y47892858D01*
X15988095Y47988096D01*
X15988095Y48083334D01*
X15940476Y48178572D01*
X15892857Y48226191D01*
X15797619Y48273810D01*
X15607142Y48321429D01*
X15511904Y48369048D01*
X15464285Y48416667D01*
X15416666Y48511905D01*
X15416666Y48607143D01*
X15464285Y48702381D01*
X15511904Y48750000D01*
X15607142Y48797620D01*
X15845238Y48797620D01*
X15988095Y48750000D01*
X16321428Y48797620D02*
X16559523Y47797620D01*
X16750000Y48511905D01*
X16940476Y47797620D01*
X17178571Y48797620D01*
X17464285Y48797620D02*
X18130952Y48797620D01*
X17702380Y47797620D01*
%TO.C,SW9*%
X61416666Y47845239D02*
X61559523Y47797620D01*
X61797619Y47797620D01*
X61892857Y47845239D01*
X61940476Y47892858D01*
X61988095Y47988096D01*
X61988095Y48083334D01*
X61940476Y48178572D01*
X61892857Y48226191D01*
X61797619Y48273810D01*
X61607142Y48321429D01*
X61511904Y48369048D01*
X61464285Y48416667D01*
X61416666Y48511905D01*
X61416666Y48607143D01*
X61464285Y48702381D01*
X61511904Y48750000D01*
X61607142Y48797620D01*
X61845238Y48797620D01*
X61988095Y48750000D01*
X62321428Y48797620D02*
X62559523Y47797620D01*
X62750000Y48511905D01*
X62940476Y47797620D01*
X63178571Y48797620D01*
X63607142Y47797620D02*
X63797619Y47797620D01*
X63892857Y47845239D01*
X63940476Y47892858D01*
X64035714Y48035715D01*
X64083333Y48226191D01*
X64083333Y48607143D01*
X64035714Y48702381D01*
X63988095Y48750000D01*
X63892857Y48797620D01*
X63702380Y48797620D01*
X63607142Y48750000D01*
X63559523Y48702381D01*
X63511904Y48607143D01*
X63511904Y48369048D01*
X63559523Y48273810D01*
X63607142Y48226191D01*
X63702380Y48178572D01*
X63892857Y48178572D01*
X63988095Y48226191D01*
X64035714Y48273810D01*
X64083333Y48369048D01*
%TO.C,H1*%
X3563095Y7072620D02*
X3563095Y8072620D01*
X3563095Y7596429D02*
X4134523Y7596429D01*
X4134523Y7072620D02*
X4134523Y8072620D01*
X5134523Y7072620D02*
X4563095Y7072620D01*
X4848809Y7072620D02*
X4848809Y8072620D01*
X4753571Y7929762D01*
X4658333Y7834524D01*
X4563095Y7786905D01*
%TO.C,H2*%
X69738095Y5747620D02*
X69738095Y6747620D01*
X69738095Y6271429D02*
X70309523Y6271429D01*
X70309523Y5747620D02*
X70309523Y6747620D01*
X70738095Y6652381D02*
X70785714Y6700000D01*
X70880952Y6747620D01*
X71119047Y6747620D01*
X71214285Y6700000D01*
X71261904Y6652381D01*
X71309523Y6557143D01*
X71309523Y6461905D01*
X71261904Y6319048D01*
X70690476Y5747620D01*
X71309523Y5747620D01*
%TO.C,SW10*%
X14940476Y24845239D02*
X15083333Y24797620D01*
X15321428Y24797620D01*
X15416666Y24845239D01*
X15464285Y24892858D01*
X15511904Y24988096D01*
X15511904Y25083334D01*
X15464285Y25178572D01*
X15416666Y25226191D01*
X15321428Y25273810D01*
X15130952Y25321429D01*
X15035714Y25369048D01*
X14988095Y25416667D01*
X14940476Y25511905D01*
X14940476Y25607143D01*
X14988095Y25702381D01*
X15035714Y25750000D01*
X15130952Y25797620D01*
X15369047Y25797620D01*
X15511904Y25750000D01*
X15845238Y25797620D02*
X16083333Y24797620D01*
X16273809Y25511905D01*
X16464285Y24797620D01*
X16702380Y25797620D01*
X17607142Y24797620D02*
X17035714Y24797620D01*
X17321428Y24797620D02*
X17321428Y25797620D01*
X17226190Y25654762D01*
X17130952Y25559524D01*
X17035714Y25511905D01*
X18226190Y25797620D02*
X18321428Y25797620D01*
X18416666Y25750000D01*
X18464285Y25702381D01*
X18511904Y25607143D01*
X18559523Y25416667D01*
X18559523Y25178572D01*
X18511904Y24988096D01*
X18464285Y24892858D01*
X18416666Y24845239D01*
X18321428Y24797620D01*
X18226190Y24797620D01*
X18130952Y24845239D01*
X18083333Y24892858D01*
X18035714Y24988096D01*
X17988095Y25178572D01*
X17988095Y25416667D01*
X18035714Y25607143D01*
X18083333Y25702381D01*
X18130952Y25750000D01*
X18226190Y25797620D01*
%TO.C,SW3*%
X61416666Y93845239D02*
X61559523Y93797620D01*
X61797619Y93797620D01*
X61892857Y93845239D01*
X61940476Y93892858D01*
X61988095Y93988096D01*
X61988095Y94083334D01*
X61940476Y94178572D01*
X61892857Y94226191D01*
X61797619Y94273810D01*
X61607142Y94321429D01*
X61511904Y94369048D01*
X61464285Y94416667D01*
X61416666Y94511905D01*
X61416666Y94607143D01*
X61464285Y94702381D01*
X61511904Y94750000D01*
X61607142Y94797620D01*
X61845238Y94797620D01*
X61988095Y94750000D01*
X62321428Y94797620D02*
X62559523Y93797620D01*
X62750000Y94511905D01*
X62940476Y93797620D01*
X63178571Y94797620D01*
X63464285Y94797620D02*
X64083333Y94797620D01*
X63750000Y94416667D01*
X63892857Y94416667D01*
X63988095Y94369048D01*
X64035714Y94321429D01*
X64083333Y94226191D01*
X64083333Y93988096D01*
X64035714Y93892858D01*
X63988095Y93845239D01*
X63892857Y93797620D01*
X63607142Y93797620D01*
X63511904Y93845239D01*
X63464285Y93892858D01*
%TO.C,SW1*%
X15416666Y93845239D02*
X15559523Y93797620D01*
X15797619Y93797620D01*
X15892857Y93845239D01*
X15940476Y93892858D01*
X15988095Y93988096D01*
X15988095Y94083334D01*
X15940476Y94178572D01*
X15892857Y94226191D01*
X15797619Y94273810D01*
X15607142Y94321429D01*
X15511904Y94369048D01*
X15464285Y94416667D01*
X15416666Y94511905D01*
X15416666Y94607143D01*
X15464285Y94702381D01*
X15511904Y94750000D01*
X15607142Y94797620D01*
X15845238Y94797620D01*
X15988095Y94750000D01*
X16321428Y94797620D02*
X16559523Y93797620D01*
X16750000Y94511905D01*
X16940476Y93797620D01*
X17178571Y94797620D01*
X18083333Y93797620D02*
X17511904Y93797620D01*
X17797619Y93797620D02*
X17797619Y94797620D01*
X17702380Y94654762D01*
X17607142Y94559524D01*
X17511904Y94511905D01*
%TO.C,H4*%
X2263095Y97422620D02*
X2263095Y98422620D01*
X2263095Y97946429D02*
X2834523Y97946429D01*
X2834523Y97422620D02*
X2834523Y98422620D01*
X3739285Y98089286D02*
X3739285Y97422620D01*
X3501190Y98470239D02*
X3263095Y97755953D01*
X3882142Y97755953D01*
%TO.C,SW2*%
X38416666Y93845239D02*
X38559523Y93797620D01*
X38797619Y93797620D01*
X38892857Y93845239D01*
X38940476Y93892858D01*
X38988095Y93988096D01*
X38988095Y94083334D01*
X38940476Y94178572D01*
X38892857Y94226191D01*
X38797619Y94273810D01*
X38607142Y94321429D01*
X38511904Y94369048D01*
X38464285Y94416667D01*
X38416666Y94511905D01*
X38416666Y94607143D01*
X38464285Y94702381D01*
X38511904Y94750000D01*
X38607142Y94797620D01*
X38845238Y94797620D01*
X38988095Y94750000D01*
X39321428Y94797620D02*
X39559523Y93797620D01*
X39750000Y94511905D01*
X39940476Y93797620D01*
X40178571Y94797620D01*
X40511904Y94702381D02*
X40559523Y94750000D01*
X40654761Y94797620D01*
X40892857Y94797620D01*
X40988095Y94750000D01*
X41035714Y94702381D01*
X41083333Y94607143D01*
X41083333Y94511905D01*
X41035714Y94369048D01*
X40464285Y93797620D01*
X41083333Y93797620D01*
%TO.C,SW6*%
X61416666Y70845239D02*
X61559523Y70797620D01*
X61797619Y70797620D01*
X61892857Y70845239D01*
X61940476Y70892858D01*
X61988095Y70988096D01*
X61988095Y71083334D01*
X61940476Y71178572D01*
X61892857Y71226191D01*
X61797619Y71273810D01*
X61607142Y71321429D01*
X61511904Y71369048D01*
X61464285Y71416667D01*
X61416666Y71511905D01*
X61416666Y71607143D01*
X61464285Y71702381D01*
X61511904Y71750000D01*
X61607142Y71797620D01*
X61845238Y71797620D01*
X61988095Y71750000D01*
X62321428Y71797620D02*
X62559523Y70797620D01*
X62750000Y71511905D01*
X62940476Y70797620D01*
X63178571Y71797620D01*
X63988095Y71797620D02*
X63797619Y71797620D01*
X63702380Y71750000D01*
X63654761Y71702381D01*
X63559523Y71559524D01*
X63511904Y71369048D01*
X63511904Y70988096D01*
X63559523Y70892858D01*
X63607142Y70845239D01*
X63702380Y70797620D01*
X63892857Y70797620D01*
X63988095Y70845239D01*
X64035714Y70892858D01*
X64083333Y70988096D01*
X64083333Y71226191D01*
X64035714Y71321429D01*
X63988095Y71369048D01*
X63892857Y71416667D01*
X63702380Y71416667D01*
X63607142Y71369048D01*
X63559523Y71321429D01*
X63511904Y71226191D01*
%TO.C,SW11*%
X37940476Y24845239D02*
X38083333Y24797620D01*
X38321428Y24797620D01*
X38416666Y24845239D01*
X38464285Y24892858D01*
X38511904Y24988096D01*
X38511904Y25083334D01*
X38464285Y25178572D01*
X38416666Y25226191D01*
X38321428Y25273810D01*
X38130952Y25321429D01*
X38035714Y25369048D01*
X37988095Y25416667D01*
X37940476Y25511905D01*
X37940476Y25607143D01*
X37988095Y25702381D01*
X38035714Y25750000D01*
X38130952Y25797620D01*
X38369047Y25797620D01*
X38511904Y25750000D01*
X38845238Y25797620D02*
X39083333Y24797620D01*
X39273809Y25511905D01*
X39464285Y24797620D01*
X39702380Y25797620D01*
X40607142Y24797620D02*
X40035714Y24797620D01*
X40321428Y24797620D02*
X40321428Y25797620D01*
X40226190Y25654762D01*
X40130952Y25559524D01*
X40035714Y25511905D01*
X41559523Y24797620D02*
X40988095Y24797620D01*
X41273809Y24797620D02*
X41273809Y25797620D01*
X41178571Y25654762D01*
X41083333Y25559524D01*
X40988095Y25511905D01*
%TO.C,SW12*%
X60940476Y24845239D02*
X61083333Y24797620D01*
X61321428Y24797620D01*
X61416666Y24845239D01*
X61464285Y24892858D01*
X61511904Y24988096D01*
X61511904Y25083334D01*
X61464285Y25178572D01*
X61416666Y25226191D01*
X61321428Y25273810D01*
X61130952Y25321429D01*
X61035714Y25369048D01*
X60988095Y25416667D01*
X60940476Y25511905D01*
X60940476Y25607143D01*
X60988095Y25702381D01*
X61035714Y25750000D01*
X61130952Y25797620D01*
X61369047Y25797620D01*
X61511904Y25750000D01*
X61845238Y25797620D02*
X62083333Y24797620D01*
X62273809Y25511905D01*
X62464285Y24797620D01*
X62702380Y25797620D01*
X63607142Y24797620D02*
X63035714Y24797620D01*
X63321428Y24797620D02*
X63321428Y25797620D01*
X63226190Y25654762D01*
X63130952Y25559524D01*
X63035714Y25511905D01*
X63988095Y25702381D02*
X64035714Y25750000D01*
X64130952Y25797620D01*
X64369047Y25797620D01*
X64464285Y25750000D01*
X64511904Y25702381D01*
X64559523Y25607143D01*
X64559523Y25511905D01*
X64511904Y25369048D01*
X63940476Y24797620D01*
X64559523Y24797620D01*
%TO.C,J1*%
X25991666Y102397620D02*
X25991666Y101683334D01*
X25944047Y101540477D01*
X25848809Y101445239D01*
X25705952Y101397620D01*
X25610714Y101397620D01*
X26991666Y101397620D02*
X26420238Y101397620D01*
X26705952Y101397620D02*
X26705952Y102397620D01*
X26610714Y102254762D01*
X26515476Y102159524D01*
X26420238Y102111905D01*
%TO.C,SW8*%
X38416666Y47845239D02*
X38559523Y47797620D01*
X38797619Y47797620D01*
X38892857Y47845239D01*
X38940476Y47892858D01*
X38988095Y47988096D01*
X38988095Y48083334D01*
X38940476Y48178572D01*
X38892857Y48226191D01*
X38797619Y48273810D01*
X38607142Y48321429D01*
X38511904Y48369048D01*
X38464285Y48416667D01*
X38416666Y48511905D01*
X38416666Y48607143D01*
X38464285Y48702381D01*
X38511904Y48750000D01*
X38607142Y48797620D01*
X38845238Y48797620D01*
X38988095Y48750000D01*
X39321428Y48797620D02*
X39559523Y47797620D01*
X39750000Y48511905D01*
X39940476Y47797620D01*
X40178571Y48797620D01*
X40702380Y48369048D02*
X40607142Y48416667D01*
X40559523Y48464286D01*
X40511904Y48559524D01*
X40511904Y48607143D01*
X40559523Y48702381D01*
X40607142Y48750000D01*
X40702380Y48797620D01*
X40892857Y48797620D01*
X40988095Y48750000D01*
X41035714Y48702381D01*
X41083333Y48607143D01*
X41083333Y48559524D01*
X41035714Y48464286D01*
X40988095Y48416667D01*
X40892857Y48369048D01*
X40702380Y48369048D01*
X40607142Y48321429D01*
X40559523Y48273810D01*
X40511904Y48178572D01*
X40511904Y47988096D01*
X40559523Y47892858D01*
X40607142Y47845239D01*
X40702380Y47797620D01*
X40892857Y47797620D01*
X40988095Y47845239D01*
X41035714Y47892858D01*
X41083333Y47988096D01*
X41083333Y48178572D01*
X41035714Y48273810D01*
X40988095Y48321429D01*
X40892857Y48369048D01*
%TO.C,SW4*%
X15416666Y70845239D02*
X15559523Y70797620D01*
X15797619Y70797620D01*
X15892857Y70845239D01*
X15940476Y70892858D01*
X15988095Y70988096D01*
X15988095Y71083334D01*
X15940476Y71178572D01*
X15892857Y71226191D01*
X15797619Y71273810D01*
X15607142Y71321429D01*
X15511904Y71369048D01*
X15464285Y71416667D01*
X15416666Y71511905D01*
X15416666Y71607143D01*
X15464285Y71702381D01*
X15511904Y71750000D01*
X15607142Y71797620D01*
X15845238Y71797620D01*
X15988095Y71750000D01*
X16321428Y71797620D02*
X16559523Y70797620D01*
X16750000Y71511905D01*
X16940476Y70797620D01*
X17178571Y71797620D01*
X17988095Y71464286D02*
X17988095Y70797620D01*
X17750000Y71845239D02*
X17511904Y71130953D01*
X18130952Y71130953D01*
%TO.C,H3*%
X69738095Y97422620D02*
X69738095Y98422620D01*
X69738095Y97946429D02*
X70309523Y97946429D01*
X70309523Y97422620D02*
X70309523Y98422620D01*
X70690476Y98422620D02*
X71309523Y98422620D01*
X70976190Y98041667D01*
X71119047Y98041667D01*
X71214285Y97994048D01*
X71261904Y97946429D01*
X71309523Y97851191D01*
X71309523Y97613096D01*
X71261904Y97517858D01*
X71214285Y97470239D01*
X71119047Y97422620D01*
X70833333Y97422620D01*
X70738095Y97470239D01*
X70690476Y97517858D01*
D12*
%TO.C,SW5*%
X39500000Y69500000D02*
X31500000Y69500000D01*
D13*
X41500000Y66800000D02*
X41500000Y62200000D01*
X29500000Y69500000D02*
X30500000Y70500000D01*
D12*
X40500000Y60500000D02*
X40500000Y68500000D01*
X30500000Y68500000D02*
X30500000Y60500000D01*
D13*
X41500000Y60500000D02*
X41500000Y59500000D01*
D12*
X31500000Y59500000D02*
X39500000Y59500000D01*
D13*
X40500000Y58500000D02*
X30500000Y58500000D01*
X41500000Y59500000D02*
X40500000Y58500000D01*
X30500000Y70500000D02*
X40500000Y70500000D01*
X29500000Y66800000D02*
X29500000Y62200000D01*
X29500000Y68500000D02*
X29500000Y69500000D01*
X29500000Y59500000D02*
X29500000Y60500000D01*
X40500000Y70500000D02*
X41500000Y69500000D01*
X30500000Y58500000D02*
X29500000Y59500000D01*
X41500000Y69500000D02*
X41500000Y68500000D01*
D12*
X39500000Y59500000D02*
G75*
G03*
X40500000Y60500000I0J1000000D01*
G01*
X31500000Y69500000D02*
G75*
G03*
X30500000Y68500000I-1J-999999D01*
G01*
X30500000Y60500000D02*
G75*
G03*
X31500000Y59500000I999999J-1D01*
G01*
X40500000Y68500000D02*
G75*
G03*
X39500000Y69500000I-1000000J0D01*
G01*
X39500000Y61000000D02*
G75*
G03*
X39500000Y61000000I-500000J0D01*
G01*
X39500000Y68000000D02*
G75*
G03*
X39500000Y68000000I-500000J0D01*
G01*
D13*
X38850000Y64500000D02*
G75*
G03*
X38850000Y64500000I-3350000J0D01*
G01*
D12*
X32500000Y61000000D02*
G75*
G03*
X32500000Y61000000I-500000J0D01*
G01*
X32500000Y68000000D02*
G75*
G03*
X32500000Y68000000I-500000J0D01*
G01*
D13*
%TO.C,SW7*%
X17500000Y47500000D02*
X18500000Y46500000D01*
X6500000Y36500000D02*
X6500000Y37500000D01*
D12*
X16500000Y46500000D02*
X8500000Y46500000D01*
D13*
X18500000Y37500000D02*
X18500000Y36500000D01*
D12*
X17500000Y37500000D02*
X17500000Y45500000D01*
D13*
X6500000Y45500000D02*
X6500000Y46500000D01*
X6500000Y46500000D02*
X7500000Y47500000D01*
X18500000Y43800000D02*
X18500000Y39200000D01*
D12*
X8500000Y36500000D02*
X16500000Y36500000D01*
D13*
X6500000Y43800000D02*
X6500000Y39200000D01*
X7500000Y47500000D02*
X17500000Y47500000D01*
D12*
X7500000Y45500000D02*
X7500000Y37500000D01*
D13*
X18500000Y36500000D02*
X17500000Y35500000D01*
X17500000Y35500000D02*
X7500000Y35500000D01*
X7500000Y35500000D02*
X6500000Y36500000D01*
X18500000Y46500000D02*
X18500000Y45500000D01*
D12*
X17500000Y45500000D02*
G75*
G03*
X16500000Y46500000I-1000000J0D01*
G01*
X8500000Y46500000D02*
G75*
G03*
X7500000Y45500000I-1J-999999D01*
G01*
X16500000Y36500000D02*
G75*
G03*
X17500000Y37500000I0J1000000D01*
G01*
X7500000Y37500000D02*
G75*
G03*
X8500000Y36500000I999999J-1D01*
G01*
X16500000Y38000000D02*
G75*
G03*
X16500000Y38000000I-500000J0D01*
G01*
X9500000Y45000000D02*
G75*
G03*
X9500000Y45000000I-500000J0D01*
G01*
X9500000Y38000000D02*
G75*
G03*
X9500000Y38000000I-500000J0D01*
G01*
D13*
X15850000Y41500000D02*
G75*
G03*
X15850000Y41500000I-3350000J0D01*
G01*
D12*
X16500000Y45000000D02*
G75*
G03*
X16500000Y45000000I-500000J0D01*
G01*
%TO.C,SW9*%
X54500000Y36500000D02*
X62500000Y36500000D01*
D13*
X64500000Y36500000D02*
X63500000Y35500000D01*
X53500000Y47500000D02*
X63500000Y47500000D01*
X52500000Y36500000D02*
X52500000Y37500000D01*
X52500000Y46500000D02*
X53500000Y47500000D01*
X52500000Y43800000D02*
X52500000Y39200000D01*
X64500000Y37500000D02*
X64500000Y36500000D01*
X64500000Y43800000D02*
X64500000Y39200000D01*
D12*
X63500000Y37500000D02*
X63500000Y45500000D01*
D13*
X53500000Y35500000D02*
X52500000Y36500000D01*
X64500000Y46500000D02*
X64500000Y45500000D01*
D12*
X53500000Y45500000D02*
X53500000Y37500000D01*
D13*
X63500000Y47500000D02*
X64500000Y46500000D01*
X63500000Y35500000D02*
X53500000Y35500000D01*
X52500000Y45500000D02*
X52500000Y46500000D01*
D12*
X62500000Y46500000D02*
X54500000Y46500000D01*
X54500000Y46500000D02*
G75*
G03*
X53500000Y45500000I-1J-999999D01*
G01*
X53500000Y37500000D02*
G75*
G03*
X54500000Y36500000I999999J-1D01*
G01*
X62500000Y36500000D02*
G75*
G03*
X63500000Y37500000I0J1000000D01*
G01*
X63500000Y45500000D02*
G75*
G03*
X62500000Y46500000I-1000000J0D01*
G01*
X62500000Y38000000D02*
G75*
G03*
X62500000Y38000000I-500000J0D01*
G01*
X55500000Y45000000D02*
G75*
G03*
X55500000Y45000000I-500000J0D01*
G01*
X62500000Y45000000D02*
G75*
G03*
X62500000Y45000000I-500000J0D01*
G01*
X55500000Y38000000D02*
G75*
G03*
X55500000Y38000000I-500000J0D01*
G01*
D13*
X61850000Y41500000D02*
G75*
G03*
X61850000Y41500000I-3350000J0D01*
G01*
%TO.C,SW10*%
X18500000Y23500000D02*
X18500000Y22500000D01*
D12*
X7500000Y22500000D02*
X7500000Y14500000D01*
D13*
X18500000Y20800000D02*
X18500000Y16200000D01*
X7500000Y24500000D02*
X17500000Y24500000D01*
D12*
X8500000Y13500000D02*
X16500000Y13500000D01*
D13*
X7500000Y12500000D02*
X6500000Y13500000D01*
X17500000Y12500000D02*
X7500000Y12500000D01*
X6500000Y20800000D02*
X6500000Y16200000D01*
X6500000Y13500000D02*
X6500000Y14500000D01*
D12*
X16500000Y23500000D02*
X8500000Y23500000D01*
X17500000Y14500000D02*
X17500000Y22500000D01*
D13*
X18500000Y13500000D02*
X17500000Y12500000D01*
X6500000Y22500000D02*
X6500000Y23500000D01*
X6500000Y23500000D02*
X7500000Y24500000D01*
X17500000Y24500000D02*
X18500000Y23500000D01*
X18500000Y14500000D02*
X18500000Y13500000D01*
D12*
X16500000Y13500000D02*
G75*
G03*
X17500000Y14500000I0J1000000D01*
G01*
X8500000Y23500000D02*
G75*
G03*
X7500000Y22500000I-1J-999999D01*
G01*
X17500000Y22500000D02*
G75*
G03*
X16500000Y23500000I-1000000J0D01*
G01*
X7500000Y14500000D02*
G75*
G03*
X8500000Y13500000I999999J-1D01*
G01*
X9500000Y15000000D02*
G75*
G03*
X9500000Y15000000I-500000J0D01*
G01*
D13*
X15850000Y18500000D02*
G75*
G03*
X15850000Y18500000I-3350000J0D01*
G01*
D12*
X9500000Y22000000D02*
G75*
G03*
X9500000Y22000000I-500000J0D01*
G01*
X16500000Y22000000D02*
G75*
G03*
X16500000Y22000000I-500000J0D01*
G01*
X16500000Y15000000D02*
G75*
G03*
X16500000Y15000000I-500000J0D01*
G01*
D13*
%TO.C,SW3*%
X52500000Y82500000D02*
X52500000Y83500000D01*
X64500000Y92500000D02*
X64500000Y91500000D01*
X64500000Y82500000D02*
X63500000Y81500000D01*
X63500000Y81500000D02*
X53500000Y81500000D01*
X52500000Y91500000D02*
X52500000Y92500000D01*
X53500000Y93500000D02*
X63500000Y93500000D01*
X64500000Y83500000D02*
X64500000Y82500000D01*
X53500000Y81500000D02*
X52500000Y82500000D01*
D12*
X53500000Y91500000D02*
X53500000Y83500000D01*
D13*
X52500000Y92500000D02*
X53500000Y93500000D01*
D12*
X63500000Y83500000D02*
X63500000Y91500000D01*
D13*
X64500000Y89800000D02*
X64500000Y85200000D01*
D12*
X54500000Y82500000D02*
X62500000Y82500000D01*
D13*
X52500000Y89800000D02*
X52500000Y85200000D01*
D12*
X62500000Y92500000D02*
X54500000Y92500000D01*
D13*
X63500000Y93500000D02*
X64500000Y92500000D01*
D12*
X62500000Y82500000D02*
G75*
G03*
X63500000Y83500000I0J1000000D01*
G01*
X54500000Y92500000D02*
G75*
G03*
X53500000Y91500000I-1J-999999D01*
G01*
X63500000Y91500000D02*
G75*
G03*
X62500000Y92500000I-1000000J0D01*
G01*
X53500000Y83500000D02*
G75*
G03*
X54500000Y82500000I999999J-1D01*
G01*
D13*
X61850000Y87500000D02*
G75*
G03*
X61850000Y87500000I-3350000J0D01*
G01*
D12*
X62500000Y84000000D02*
G75*
G03*
X62500000Y84000000I-500000J0D01*
G01*
X62500000Y91000000D02*
G75*
G03*
X62500000Y91000000I-500000J0D01*
G01*
X55500000Y91000000D02*
G75*
G03*
X55500000Y91000000I-500000J0D01*
G01*
X55500000Y84000000D02*
G75*
G03*
X55500000Y84000000I-500000J0D01*
G01*
D13*
%TO.C,SW1*%
X18500000Y82500000D02*
X17500000Y81500000D01*
X18500000Y92500000D02*
X18500000Y91500000D01*
X17500000Y93500000D02*
X18500000Y92500000D01*
X6500000Y92500000D02*
X7500000Y93500000D01*
D12*
X7500000Y91500000D02*
X7500000Y83500000D01*
D13*
X7500000Y81500000D02*
X6500000Y82500000D01*
X6500000Y82500000D02*
X6500000Y83500000D01*
X18500000Y83500000D02*
X18500000Y82500000D01*
D12*
X8500000Y82500000D02*
X16500000Y82500000D01*
D13*
X17500000Y81500000D02*
X7500000Y81500000D01*
X6500000Y89800000D02*
X6500000Y85200000D01*
D12*
X17500000Y83500000D02*
X17500000Y91500000D01*
D13*
X6500000Y91500000D02*
X6500000Y92500000D01*
X18500000Y89800000D02*
X18500000Y85200000D01*
D12*
X16500000Y92500000D02*
X8500000Y92500000D01*
D13*
X7500000Y93500000D02*
X17500000Y93500000D01*
D12*
X16500000Y82500000D02*
G75*
G03*
X17500000Y83500000I0J1000000D01*
G01*
X8500000Y92500000D02*
G75*
G03*
X7500000Y91500000I-1J-999999D01*
G01*
X7500000Y83500000D02*
G75*
G03*
X8500000Y82500000I999999J-1D01*
G01*
X17500000Y91500000D02*
G75*
G03*
X16500000Y92500000I-1000000J0D01*
G01*
D13*
X15850000Y87500000D02*
G75*
G03*
X15850000Y87500000I-3350000J0D01*
G01*
D12*
X9500000Y91000000D02*
G75*
G03*
X9500000Y91000000I-500000J0D01*
G01*
X9500000Y84000000D02*
G75*
G03*
X9500000Y84000000I-500000J0D01*
G01*
X16500000Y91000000D02*
G75*
G03*
X16500000Y91000000I-500000J0D01*
G01*
X16500000Y84000000D02*
G75*
G03*
X16500000Y84000000I-500000J0D01*
G01*
D13*
%TO.C,SW2*%
X30500000Y93500000D02*
X40500000Y93500000D01*
X29500000Y91500000D02*
X29500000Y92500000D01*
X30500000Y81500000D02*
X29500000Y82500000D01*
X29500000Y89800000D02*
X29500000Y85200000D01*
X41500000Y89800000D02*
X41500000Y85200000D01*
X41500000Y83500000D02*
X41500000Y82500000D01*
X41500000Y92500000D02*
X41500000Y91500000D01*
X40500000Y93500000D02*
X41500000Y92500000D01*
D12*
X30500000Y91500000D02*
X30500000Y83500000D01*
X39500000Y92500000D02*
X31500000Y92500000D01*
D13*
X29500000Y92500000D02*
X30500000Y93500000D01*
X40500000Y81500000D02*
X30500000Y81500000D01*
D12*
X31500000Y82500000D02*
X39500000Y82500000D01*
X40500000Y83500000D02*
X40500000Y91500000D01*
D13*
X41500000Y82500000D02*
X40500000Y81500000D01*
X29500000Y82500000D02*
X29500000Y83500000D01*
D12*
X39500000Y82500000D02*
G75*
G03*
X40500000Y83500000I0J1000000D01*
G01*
X30500000Y83500000D02*
G75*
G03*
X31500000Y82500000I999999J-1D01*
G01*
X40500000Y91500000D02*
G75*
G03*
X39500000Y92500000I-1000000J0D01*
G01*
X31500000Y92500000D02*
G75*
G03*
X30500000Y91500000I-1J-999999D01*
G01*
D13*
X38850000Y87500000D02*
G75*
G03*
X38850000Y87500000I-3350000J0D01*
G01*
D12*
X32500000Y84000000D02*
G75*
G03*
X32500000Y84000000I-500000J0D01*
G01*
X32500000Y91000000D02*
G75*
G03*
X32500000Y91000000I-500000J0D01*
G01*
X39500000Y84000000D02*
G75*
G03*
X39500000Y84000000I-500000J0D01*
G01*
X39500000Y91000000D02*
G75*
G03*
X39500000Y91000000I-500000J0D01*
G01*
D13*
%TO.C,SW6*%
X53500000Y70500000D02*
X63500000Y70500000D01*
D12*
X54500000Y59500000D02*
X62500000Y59500000D01*
D13*
X64500000Y59500000D02*
X63500000Y58500000D01*
D12*
X63500000Y60500000D02*
X63500000Y68500000D01*
D13*
X64500000Y60500000D02*
X64500000Y59500000D01*
X52500000Y59500000D02*
X52500000Y60500000D01*
X63500000Y70500000D02*
X64500000Y69500000D01*
X52500000Y69500000D02*
X53500000Y70500000D01*
X52500000Y68500000D02*
X52500000Y69500000D01*
X63500000Y58500000D02*
X53500000Y58500000D01*
X52500000Y66800000D02*
X52500000Y62200000D01*
D12*
X53500000Y68500000D02*
X53500000Y60500000D01*
X62500000Y69500000D02*
X54500000Y69500000D01*
D13*
X64500000Y66800000D02*
X64500000Y62200000D01*
X64500000Y69500000D02*
X64500000Y68500000D01*
X53500000Y58500000D02*
X52500000Y59500000D01*
D12*
X63500000Y68500000D02*
G75*
G03*
X62500000Y69500000I-1000000J0D01*
G01*
X53500000Y60500000D02*
G75*
G03*
X54500000Y59500000I999999J-1D01*
G01*
X62500000Y59500000D02*
G75*
G03*
X63500000Y60500000I0J1000000D01*
G01*
X54500000Y69500000D02*
G75*
G03*
X53500000Y68500000I-1J-999999D01*
G01*
X55500000Y68000000D02*
G75*
G03*
X55500000Y68000000I-500000J0D01*
G01*
X55500000Y61000000D02*
G75*
G03*
X55500000Y61000000I-500000J0D01*
G01*
X62500000Y68000000D02*
G75*
G03*
X62500000Y68000000I-500000J0D01*
G01*
X62500000Y61000000D02*
G75*
G03*
X62500000Y61000000I-500000J0D01*
G01*
D13*
X61850000Y64500000D02*
G75*
G03*
X61850000Y64500000I-3350000J0D01*
G01*
%TO.C,SW11*%
X29500000Y20800000D02*
X29500000Y16200000D01*
X41500000Y20800000D02*
X41500000Y16200000D01*
X30500000Y24500000D02*
X40500000Y24500000D01*
D12*
X30500000Y22500000D02*
X30500000Y14500000D01*
D13*
X41500000Y14500000D02*
X41500000Y13500000D01*
X41500000Y13500000D02*
X40500000Y12500000D01*
X41500000Y23500000D02*
X41500000Y22500000D01*
X40500000Y24500000D02*
X41500000Y23500000D01*
X29500000Y13500000D02*
X29500000Y14500000D01*
D12*
X39500000Y23500000D02*
X31500000Y23500000D01*
D13*
X30500000Y12500000D02*
X29500000Y13500000D01*
D12*
X40500000Y14500000D02*
X40500000Y22500000D01*
D13*
X29500000Y23500000D02*
X30500000Y24500000D01*
X29500000Y22500000D02*
X29500000Y23500000D01*
D12*
X31500000Y13500000D02*
X39500000Y13500000D01*
D13*
X40500000Y12500000D02*
X30500000Y12500000D01*
D12*
X39500000Y13500000D02*
G75*
G03*
X40500000Y14500000I0J1000000D01*
G01*
X40500000Y22500000D02*
G75*
G03*
X39500000Y23500000I-1000000J0D01*
G01*
X30500000Y14500000D02*
G75*
G03*
X31500000Y13500000I999999J-1D01*
G01*
X31500000Y23500000D02*
G75*
G03*
X30500000Y22500000I-1J-999999D01*
G01*
D13*
X38850000Y18500000D02*
G75*
G03*
X38850000Y18500000I-3350000J0D01*
G01*
D12*
X39500000Y22000000D02*
G75*
G03*
X39500000Y22000000I-500000J0D01*
G01*
X32500000Y22000000D02*
G75*
G03*
X32500000Y22000000I-500000J0D01*
G01*
X39500000Y15000000D02*
G75*
G03*
X39500000Y15000000I-500000J0D01*
G01*
X32500000Y15000000D02*
G75*
G03*
X32500000Y15000000I-500000J0D01*
G01*
D13*
%TO.C,SW12*%
X53500000Y24500000D02*
X63500000Y24500000D01*
D12*
X53500000Y22500000D02*
X53500000Y14500000D01*
X63500000Y14500000D02*
X63500000Y22500000D01*
D13*
X52500000Y23500000D02*
X53500000Y24500000D01*
X53500000Y12500000D02*
X52500000Y13500000D01*
D12*
X62500000Y23500000D02*
X54500000Y23500000D01*
D13*
X63500000Y24500000D02*
X64500000Y23500000D01*
D12*
X54500000Y13500000D02*
X62500000Y13500000D01*
D13*
X52500000Y20800000D02*
X52500000Y16200000D01*
X64500000Y13500000D02*
X63500000Y12500000D01*
X64500000Y20800000D02*
X64500000Y16200000D01*
X52500000Y13500000D02*
X52500000Y14500000D01*
X64500000Y23500000D02*
X64500000Y22500000D01*
X63500000Y12500000D02*
X53500000Y12500000D01*
X52500000Y22500000D02*
X52500000Y23500000D01*
X64500000Y14500000D02*
X64500000Y13500000D01*
D12*
X54500000Y23500000D02*
G75*
G03*
X53500000Y22500000I-1J-999999D01*
G01*
X63500000Y22500000D02*
G75*
G03*
X62500000Y23500000I-1000000J0D01*
G01*
X53500000Y14500000D02*
G75*
G03*
X54500000Y13500000I999999J-1D01*
G01*
X62500000Y13500000D02*
G75*
G03*
X63500000Y14500000I0J1000000D01*
G01*
X62500000Y15000000D02*
G75*
G03*
X62500000Y15000000I-500000J0D01*
G01*
D13*
X61850000Y18500000D02*
G75*
G03*
X61850000Y18500000I-3350000J0D01*
G01*
D12*
X62500000Y22000000D02*
G75*
G03*
X62500000Y22000000I-500000J0D01*
G01*
X55500000Y22000000D02*
G75*
G03*
X55500000Y22000000I-500000J0D01*
G01*
X55500000Y15000000D02*
G75*
G03*
X55500000Y15000000I-500000J0D01*
G01*
D13*
%TO.C,J1*%
X41450000Y104100000D02*
X41450000Y110100000D01*
X43100000Y101440000D02*
X43100000Y104100000D01*
X29510000Y110100000D02*
X29510000Y104100000D01*
X44750000Y110100000D02*
X44750000Y104100000D01*
X27800000Y104100000D02*
X27800000Y101440000D01*
X31290000Y101042929D02*
X31290000Y101440000D01*
X29410000Y104100000D02*
X29410000Y110100000D01*
X43990000Y104100000D02*
X43990000Y110100000D01*
X37130000Y101042929D02*
X37130000Y101440000D01*
X38910000Y110100000D02*
X39670000Y110100000D01*
X29510000Y101110000D02*
X29510000Y101440000D01*
X36370000Y110100000D02*
X37130000Y110100000D01*
X34590000Y101042929D02*
X34590000Y101440000D01*
X28750000Y110100000D02*
X29510000Y110100000D01*
X28750000Y101110000D02*
X28750000Y101440000D01*
X33830000Y101042929D02*
X33830000Y101440000D01*
X32050000Y101042929D02*
X32050000Y101440000D01*
X43990000Y110100000D02*
X44750000Y110100000D01*
X32940000Y101440000D02*
X32940000Y104100000D01*
X45700000Y101440000D02*
X45700000Y104100000D01*
X39670000Y101042929D02*
X39670000Y101440000D01*
X35480000Y101440000D02*
X35480000Y104100000D01*
X38020000Y101440000D02*
X38020000Y104100000D01*
X40560000Y101440000D02*
X40560000Y104100000D01*
X31290000Y104100000D02*
X31290000Y110100000D01*
X27800000Y101440000D02*
X45700000Y101440000D01*
X37130000Y110100000D02*
X37130000Y104100000D01*
X27860000Y98730000D02*
X27860000Y100000000D01*
X38910000Y101042929D02*
X38910000Y101440000D01*
X42210000Y110100000D02*
X42210000Y104100000D01*
X29290000Y104100000D02*
X29290000Y110100000D01*
X43990000Y101042929D02*
X43990000Y101440000D01*
X32050000Y110100000D02*
X32050000Y104100000D01*
X30400000Y101440000D02*
X30400000Y104100000D01*
X29170000Y104100000D02*
X29170000Y110100000D01*
X29050000Y104100000D02*
X29050000Y110100000D01*
X38910000Y104100000D02*
X38910000Y110100000D01*
X34590000Y110100000D02*
X34590000Y104100000D01*
X33830000Y104100000D02*
X33830000Y110100000D01*
X45700000Y104100000D02*
X27800000Y104100000D01*
X33830000Y110100000D02*
X34590000Y110100000D01*
X41450000Y101042929D02*
X41450000Y101440000D01*
X36370000Y104100000D02*
X36370000Y110100000D01*
X41450000Y110100000D02*
X42210000Y110100000D01*
X28750000Y104100000D02*
X28750000Y110100000D01*
X28810000Y104100000D02*
X28810000Y110100000D01*
X36370000Y101042929D02*
X36370000Y101440000D01*
X42210000Y101042929D02*
X42210000Y101440000D01*
X31290000Y110100000D02*
X32050000Y110100000D01*
X28930000Y104100000D02*
X28930000Y110100000D01*
X29130000Y98730000D02*
X27860000Y98730000D01*
X44750000Y101042929D02*
X44750000Y101440000D01*
X39670000Y110100000D02*
X39670000Y104100000D01*
%TO.C,SW8*%
X30500000Y35500000D02*
X29500000Y36500000D01*
X29500000Y43800000D02*
X29500000Y39200000D01*
X40500000Y47500000D02*
X41500000Y46500000D01*
X40500000Y35500000D02*
X30500000Y35500000D01*
X41500000Y36500000D02*
X40500000Y35500000D01*
X41500000Y43800000D02*
X41500000Y39200000D01*
D12*
X31500000Y36500000D02*
X39500000Y36500000D01*
D13*
X30500000Y47500000D02*
X40500000Y47500000D01*
D12*
X30500000Y45500000D02*
X30500000Y37500000D01*
D13*
X29500000Y36500000D02*
X29500000Y37500000D01*
D12*
X39500000Y46500000D02*
X31500000Y46500000D01*
D13*
X41500000Y37500000D02*
X41500000Y36500000D01*
D12*
X40500000Y37500000D02*
X40500000Y45500000D01*
D13*
X29500000Y46500000D02*
X30500000Y47500000D01*
X29500000Y45500000D02*
X29500000Y46500000D01*
X41500000Y46500000D02*
X41500000Y45500000D01*
D12*
X31500000Y46500000D02*
G75*
G03*
X30500000Y45500000I-1J-999999D01*
G01*
X39500000Y36500000D02*
G75*
G03*
X40500000Y37500000I0J1000000D01*
G01*
X30500000Y37500000D02*
G75*
G03*
X31500000Y36500000I999999J-1D01*
G01*
X40500000Y45500000D02*
G75*
G03*
X39500000Y46500000I-1000000J0D01*
G01*
X39500000Y45000000D02*
G75*
G03*
X39500000Y45000000I-500000J0D01*
G01*
X32500000Y38000000D02*
G75*
G03*
X32500000Y38000000I-500000J0D01*
G01*
D13*
X38850000Y41500000D02*
G75*
G03*
X38850000Y41500000I-3350000J0D01*
G01*
D12*
X39500000Y38000000D02*
G75*
G03*
X39500000Y38000000I-500000J0D01*
G01*
X32500000Y45000000D02*
G75*
G03*
X32500000Y45000000I-500000J0D01*
G01*
D13*
%TO.C,SW4*%
X7500000Y70500000D02*
X17500000Y70500000D01*
D12*
X8500000Y59500000D02*
X16500000Y59500000D01*
D13*
X18500000Y59500000D02*
X17500000Y58500000D01*
X18500000Y60500000D02*
X18500000Y59500000D01*
D12*
X17500000Y60500000D02*
X17500000Y68500000D01*
D13*
X17500000Y70500000D02*
X18500000Y69500000D01*
X17500000Y58500000D02*
X7500000Y58500000D01*
X6500000Y66800000D02*
X6500000Y62200000D01*
X7500000Y58500000D02*
X6500000Y59500000D01*
X6500000Y59500000D02*
X6500000Y60500000D01*
D12*
X7500000Y68500000D02*
X7500000Y60500000D01*
D13*
X6500000Y69500000D02*
X7500000Y70500000D01*
X6500000Y68500000D02*
X6500000Y69500000D01*
X18500000Y66800000D02*
X18500000Y62200000D01*
X18500000Y69500000D02*
X18500000Y68500000D01*
D12*
X16500000Y69500000D02*
X8500000Y69500000D01*
X16500000Y59500000D02*
G75*
G03*
X17500000Y60500000I0J1000000D01*
G01*
X8500000Y69500000D02*
G75*
G03*
X7500000Y68500000I-1J-999999D01*
G01*
X7500000Y60500000D02*
G75*
G03*
X8500000Y59500000I999999J-1D01*
G01*
X17500000Y68500000D02*
G75*
G03*
X16500000Y69500000I-1000000J0D01*
G01*
X16500000Y68000000D02*
G75*
G03*
X16500000Y68000000I-500000J0D01*
G01*
X16500000Y61000000D02*
G75*
G03*
X16500000Y61000000I-500000J0D01*
G01*
X9500000Y61000000D02*
G75*
G03*
X9500000Y61000000I-500000J0D01*
G01*
X9500000Y68000000D02*
G75*
G03*
X9500000Y68000000I-500000J0D01*
G01*
D13*
X15850000Y64500000D02*
G75*
G03*
X15850000Y64500000I-3350000J0D01*
G01*
%TD*%
M02*
